<?xml version="1.0" encoding="UTF-8"?>
<!-- Generated by scripts/gen-diagrams.php; do not hand-edit. -->
<svg xmlns="http://www.w3.org/2000/svg" width="1160" height="1450" viewBox="0 0 1160 1450" role="img" aria-labelledby="title desc">
<title id="title">er-transactions zh</title>
<desc id="desc">Generated SQLite data model diagram</desc>
<style>.bg{fill:#101820}.entity,.table{fill:#1d2a35;stroke:#c1d4e5;stroke-width:2}.attribute{fill:#263744;stroke:#c1d4e5;stroke-width:2}.relationship{fill:#1d2a35;stroke:#8dcbff;stroke-width:2}.line{stroke:#c1d4e5;stroke-width:2;fill:none}.text{fill:#f2f6fa;font-family:'Noto Sans TC', 'Noto Sans', Arial, sans-serif;font-size:13px}.pk{text-decoration:underline}.external{stroke-dasharray:7 4}</style>
<rect class="bg" x="0" y="0" width="1160" height="1450" fill="#101820"/>
<line class="line" x1="19" y1="161" x2="136" y2="276" stroke="#c1d4e5"/>
<line class="line" x1="290" y1="161" x2="182" y2="276" stroke="#c1d4e5"/>
<line class="line" x1="36" y1="203" x2="129" y2="276" stroke="#c1d4e5"/>
<line class="line" x1="284" y1="203" x2="191" y2="276" stroke="#c1d4e5"/>
<line class="line" x1="409" y1="161" x2="526" y2="276" stroke="#c1d4e5"/>
<line class="line" x1="680" y1="161" x2="572" y2="276" stroke="#c1d4e5"/>
<line class="line" x1="426" y1="203" x2="519" y2="276" stroke="#c1d4e5"/>
<line class="line" x1="674" y1="203" x2="581" y2="276" stroke="#c1d4e5"/>
<line class="line" x1="428" y1="245" x2="497" y2="276" stroke="#c1d4e5"/>
<line class="line" x1="662" y1="245" x2="599" y2="276" stroke="#c1d4e5"/>
<line class="line" x1="480" y1="286" x2="435" y2="277" stroke="#c1d4e5"/>
<line class="line" x1="409" y1="791" x2="526" y2="906" stroke="#c1d4e5"/>
<line class="line" x1="680" y1="791" x2="572" y2="906" stroke="#c1d4e5"/>
<line class="line" x1="426" y1="833" x2="519" y2="906" stroke="#c1d4e5"/>
<line class="line" x1="799" y1="791" x2="916" y2="906" stroke="#c1d4e5"/>
<line class="line" x1="1070" y1="791" x2="962" y2="906" stroke="#c1d4e5"/>
<line class="line" x1="816" y1="833" x2="909" y2="906" stroke="#c1d4e5"/>
<line class="line" x1="1064" y1="833" x2="971" y2="906" stroke="#c1d4e5"/>
<line class="line" x1="799" y1="161" x2="916" y2="276" stroke="#c1d4e5"/>
<line class="line" x1="1070" y1="161" x2="962" y2="276" stroke="#c1d4e5"/>
<line class="line" x1="816" y1="203" x2="909" y2="276" stroke="#c1d4e5"/>
<line class="line" x1="1064" y1="203" x2="971" y2="276" stroke="#c1d4e5"/>
<line class="line" x1="818" y1="245" x2="887" y2="276" stroke="#c1d4e5"/>
<line class="line" x1="1052" y1="245" x2="989" y2="276" stroke="#c1d4e5"/>
<line class="line" x1="847" y1="281" x2="825" y2="277" stroke="#c1d4e5"/>
<line class="line" x1="19" y1="791" x2="136" y2="906" stroke="#c1d4e5"/>
<line class="line" x1="290" y1="791" x2="182" y2="906" stroke="#c1d4e5"/>
<line class="line" x1="36" y1="833" x2="129" y2="906" stroke="#c1d4e5"/>
<line class="line" x1="284" y1="833" x2="191" y2="906" stroke="#c1d4e5"/>
<line class="line" x1="38" y1="875" x2="107" y2="906" stroke="#c1d4e5"/>
<line class="line" x1="272" y1="875" x2="209" y2="906" stroke="#c1d4e5"/>
<line class="line" x1="67" y1="911" x2="45" y2="907" stroke="#c1d4e5"/>
<line class="line" x1="253" y1="911" x2="275" y2="907" stroke="#c1d4e5"/>
<line class="line" x1="57" y1="939" x2="45" y2="940" stroke="#c1d4e5"/>
<line class="line" x1="799" y1="1041" x2="916" y2="1156" stroke="#c1d4e5"/>
<line class="line" x1="435" y1="300" x2="396" y2="300" stroke="#c1d4e5"/>
<line class="line" x1="314" y1="300" x2="275" y2="300" stroke="#c1d4e5"/>
<line class="line" x1="561" y1="324" x2="733" y2="714" stroke="#c1d4e5"/>
<line class="line" x1="757" y1="766" x2="929" y2="1156" stroke="#c1d4e5"/>
<line class="line" x1="550" y1="906" x2="550" y2="641" stroke="#c1d4e5"/>
<line class="line" x1="550" y1="589" x2="550" y2="324" stroke="#c1d4e5"/>
<line class="line" x1="665" y1="930" x2="703" y2="930" stroke="#c1d4e5"/>
<line class="line" x1="787" y1="930" x2="825" y2="930" stroke="#c1d4e5"/>
<line class="line" x1="940" y1="324" x2="940" y2="714" stroke="#c1d4e5"/>
<line class="line" x1="940" y1="766" x2="940" y2="1156" stroke="#c1d4e5"/>
<line class="line" x1="825" y1="300" x2="786" y2="300" stroke="#c1d4e5"/>
<line class="line" x1="704" y1="300" x2="665" y2="300" stroke="#c1d4e5"/>
<line class="line" x1="175" y1="906" x2="339" y2="641" stroke="#c1d4e5"/>
<line class="line" x1="371" y1="589" x2="535" y2="324" stroke="#c1d4e5"/>
<line class="line" x1="160" y1="906" x2="160" y2="641" stroke="#c1d4e5"/>
<line class="line" x1="160" y1="589" x2="160" y2="324" stroke="#c1d4e5"/>
<defs><marker id="arrow" markerWidth="8" markerHeight="8" refX="7" refY="4" orient="auto"><path d="M0,0 L8,4 L0,8 z" fill="#c1d4e5"/></marker></defs>
<rect class="entity" x="45" y="276" width="230" height="48" rx="6" fill="#1d2a35" stroke="#c1d4e5"/>
<ellipse class="attribute" cx="3" cy="145" rx="58" ry="16" fill="#263744" stroke="#c1d4e5"/>
<ellipse class="attribute" cx="305" cy="145" rx="66" ry="16" fill="#263744" stroke="#c1d4e5"/>
<ellipse class="attribute" cx="15" cy="187" rx="99" ry="16" fill="#263744" stroke="#c1d4e5"/>
<ellipse class="attribute" cx="305" cy="187" rx="79" ry="16" fill="#263744" stroke="#c1d4e5"/>
<rect class="entity" x="435" y="276" width="230" height="48" rx="6" fill="#1d2a35" stroke="#c1d4e5"/>
<ellipse class="attribute" cx="393" cy="145" rx="52" ry="16" fill="#263744" stroke="#c1d4e5"/>
<ellipse class="attribute" cx="695" cy="145" rx="54" ry="16" fill="#263744" stroke="#c1d4e5"/>
<ellipse class="attribute" cx="405" cy="187" rx="52" ry="16" fill="#263744" stroke="#c1d4e5"/>
<ellipse class="attribute" cx="695" cy="187" rx="58" ry="16" fill="#263744" stroke="#c1d4e5"/>
<ellipse class="attribute" cx="393" cy="229" rx="58" ry="16" fill="#263744" stroke="#c1d4e5"/>
<ellipse class="attribute" cx="695" cy="229" rx="74" ry="16" fill="#263744" stroke="#c1d4e5"/>
<ellipse class="attribute" cx="405" cy="271" rx="74" ry="16" fill="#263744" stroke="#c1d4e5"/>
<rect class="entity" x="435" y="906" width="230" height="48" rx="6" fill="#1d2a35" stroke="#c1d4e5"/>
<ellipse class="attribute" cx="393" cy="775" rx="52" ry="16" fill="#263744" stroke="#c1d4e5"/>
<ellipse class="attribute" cx="695" cy="775" rx="54" ry="16" fill="#263744" stroke="#c1d4e5"/>
<ellipse class="attribute" cx="405" cy="817" rx="52" ry="16" fill="#263744" stroke="#c1d4e5"/>
<rect class="entity" x="825" y="906" width="230" height="48" rx="6" fill="#1d2a35" stroke="#c1d4e5"/>
<ellipse class="attribute" cx="783" cy="775" rx="54" ry="16" fill="#263744" stroke="#c1d4e5"/>
<ellipse class="attribute" cx="1085" cy="775" rx="62" ry="16" fill="#263744" stroke="#c1d4e5"/>
<ellipse class="attribute" cx="795" cy="817" rx="79" ry="16" fill="#263744" stroke="#c1d4e5"/>
<ellipse class="attribute" cx="1085" cy="817" rx="54" ry="16" fill="#263744" stroke="#c1d4e5"/>
<rect class="entity" x="825" y="276" width="230" height="48" rx="6" fill="#1d2a35" stroke="#c1d4e5"/>
<ellipse class="attribute" cx="783" cy="145" rx="58" ry="16" fill="#263744" stroke="#c1d4e5"/>
<ellipse class="attribute" cx="1085" cy="145" rx="58" ry="16" fill="#263744" stroke="#c1d4e5"/>
<ellipse class="attribute" cx="795" cy="187" rx="52" ry="16" fill="#263744" stroke="#c1d4e5"/>
<ellipse class="attribute" cx="1085" cy="187" rx="52" ry="16" fill="#263744" stroke="#c1d4e5"/>
<ellipse class="attribute" cx="783" cy="229" rx="74" ry="16" fill="#263744" stroke="#c1d4e5"/>
<ellipse class="attribute" cx="1085" cy="229" rx="74" ry="16" fill="#263744" stroke="#c1d4e5"/>
<ellipse class="attribute" cx="795" cy="271" rx="52" ry="16" fill="#263744" stroke="#c1d4e5"/>
<rect class="entity" x="45" y="906" width="230" height="48" rx="6" fill="#1d2a35" stroke="#c1d4e5"/>
<ellipse class="attribute" cx="3" cy="775" rx="52" ry="16" fill="#263744" stroke="#c1d4e5"/>
<ellipse class="attribute" cx="305" cy="775" rx="66" ry="16" fill="#263744" stroke="#c1d4e5"/>
<ellipse class="attribute" cx="15" cy="817" rx="99" ry="16" fill="#263744" stroke="#c1d4e5"/>
<ellipse class="attribute" cx="305" cy="817" rx="70" ry="16" fill="#263744" stroke="#c1d4e5"/>
<ellipse class="attribute" cx="3" cy="859" rx="79" ry="16" fill="#263744" stroke="#c1d4e5"/>
<ellipse class="attribute" cx="305" cy="859" rx="103" ry="16" fill="#263744" stroke="#c1d4e5"/>
<ellipse class="attribute" cx="15" cy="901" rx="52" ry="16" fill="#263744" stroke="#c1d4e5"/>
<ellipse class="attribute" cx="305" cy="901" rx="52" ry="16" fill="#263744" stroke="#c1d4e5"/>
<ellipse class="attribute" cx="3" cy="943" rx="54" ry="16" fill="#263744" stroke="#c1d4e5"/>
<rect class="entity external" x="825" y="1156" width="230" height="48" rx="6" fill="#1d2a35" stroke="#c1d4e5"/>
<ellipse class="attribute" cx="783" cy="1025" rx="58" ry="16" fill="#263744" stroke="#c1d4e5"/>
<polygon class="relationship" points="355,274 396,300 355,326 314,300" fill="#1d2a35" stroke="#8dcbff"/>
<polygon class="relationship" points="745,714 799,740 745,766 691,740" fill="#1d2a35" stroke="#8dcbff"/>
<polygon class="relationship" points="550,589 596,615 550,641 504,615" fill="#1d2a35" stroke="#8dcbff"/>
<polygon class="relationship" points="745,904 787,930 745,956 703,930" fill="#1d2a35" stroke="#8dcbff"/>
<polygon class="relationship" points="940,714 994,740 940,766 886,740" fill="#1d2a35" stroke="#8dcbff"/>
<polygon class="relationship" points="745,274 786,300 745,326 704,300" fill="#1d2a35" stroke="#8dcbff"/>
<polygon class="relationship" points="355,589 409,615 355,641 301,615" fill="#1d2a35" stroke="#8dcbff"/>
<polygon class="relationship" points="160,589 210,615 160,641 110,615" fill="#1d2a35" stroke="#8dcbff"/>
<text class="text" x="160" y="305" text-anchor="middle" fill="#f2f6fa" font-family="&apos;Noto Sans TC&apos;, &apos;Noto Sans&apos;, Arial, sans-serif" font-size="13">Customer</text>
<text class="text pk" x="3" y="150" text-anchor="middle" fill="#f2f6fa" font-family="&apos;Noto Sans TC&apos;, &apos;Noto Sans&apos;, Arial, sans-serif" font-size="13">顧客編號</text>
<text class="text" x="305" y="150" text-anchor="middle" fill="#f2f6fa" font-family="&apos;Noto Sans TC&apos;, &apos;Noto Sans&apos;, Arial, sans-serif" font-size="13">顧客姓名</text>
<text class="text" x="15" y="192" text-anchor="middle" fill="#f2f6fa" font-family="&apos;Noto Sans TC&apos;, &apos;Noto Sans&apos;, Arial, sans-serif" font-size="13">顧客電話</text>
<text class="text" x="305" y="192" text-anchor="middle" fill="#f2f6fa" font-family="&apos;Noto Sans TC&apos;, &apos;Noto Sans&apos;, Arial, sans-serif" font-size="13">顧客地址</text>
<text class="text" x="550" y="305" text-anchor="middle" fill="#f2f6fa" font-family="&apos;Noto Sans TC&apos;, &apos;Noto Sans&apos;, Arial, sans-serif" font-size="13">Orders</text>
<text class="text pk" x="393" y="150" text-anchor="middle" fill="#f2f6fa" font-family="&apos;Noto Sans TC&apos;, &apos;Noto Sans&apos;, Arial, sans-serif" font-size="13">訂單編號</text>
<text class="text" x="695" y="150" text-anchor="middle" fill="#f2f6fa" font-family="&apos;Noto Sans TC&apos;, &apos;Noto Sans&apos;, Arial, sans-serif" font-size="13">訂單時間</text>
<text class="text" x="405" y="192" text-anchor="middle" fill="#f2f6fa" font-family="&apos;Noto Sans TC&apos;, &apos;Noto Sans&apos;, Arial, sans-serif" font-size="13">出貨日期</text>
<text class="text" x="695" y="192" text-anchor="middle" fill="#f2f6fa" font-family="&apos;Noto Sans TC&apos;, &apos;Noto Sans&apos;, Arial, sans-serif" font-size="13">顧客編號</text>
<text class="text" x="393" y="234" text-anchor="middle" fill="#f2f6fa" font-family="&apos;Noto Sans TC&apos;, &apos;Noto Sans&apos;, Arial, sans-serif" font-size="13">員工編號</text>
<text class="text" x="695" y="234" text-anchor="middle" fill="#f2f6fa" font-family="&apos;Noto Sans TC&apos;, &apos;Noto Sans&apos;, Arial, sans-serif" font-size="13">追蹤編號</text>
<text class="text" x="405" y="276" text-anchor="middle" fill="#f2f6fa" font-family="&apos;Noto Sans TC&apos;, &apos;Noto Sans&apos;, Arial, sans-serif" font-size="13">運輸方式</text>
<text class="text" x="550" y="935" text-anchor="middle" fill="#f2f6fa" font-family="&apos;Noto Sans TC&apos;, &apos;Noto Sans&apos;, Arial, sans-serif" font-size="13">Contain</text>
<text class="text pk" x="393" y="780" text-anchor="middle" fill="#f2f6fa" font-family="&apos;Noto Sans TC&apos;, &apos;Noto Sans&apos;, Arial, sans-serif" font-size="13">訂單編號</text>
<text class="text pk" x="695" y="780" text-anchor="middle" fill="#f2f6fa" font-family="&apos;Noto Sans TC&apos;, &apos;Noto Sans&apos;, Arial, sans-serif" font-size="13">產品編號</text>
<text class="text" x="405" y="822" text-anchor="middle" fill="#f2f6fa" font-family="&apos;Noto Sans TC&apos;, &apos;Noto Sans&apos;, Arial, sans-serif" font-size="13">數量</text>
<text class="text" x="940" y="935" text-anchor="middle" fill="#f2f6fa" font-family="&apos;Noto Sans TC&apos;, &apos;Noto Sans&apos;, Arial, sans-serif" font-size="13">Product</text>
<text class="text pk" x="783" y="780" text-anchor="middle" fill="#f2f6fa" font-family="&apos;Noto Sans TC&apos;, &apos;Noto Sans&apos;, Arial, sans-serif" font-size="13">產品編號</text>
<text class="text" x="1085" y="780" text-anchor="middle" fill="#f2f6fa" font-family="&apos;Noto Sans TC&apos;, &apos;Noto Sans&apos;, Arial, sans-serif" font-size="13">產品名稱</text>
<text class="text" x="795" y="822" text-anchor="middle" fill="#f2f6fa" font-family="&apos;Noto Sans TC&apos;, &apos;Noto Sans&apos;, Arial, sans-serif" font-size="13">產品類別</text>
<text class="text" x="1085" y="822" text-anchor="middle" fill="#f2f6fa" font-family="&apos;Noto Sans TC&apos;, &apos;Noto Sans&apos;, Arial, sans-serif" font-size="13">單價</text>
<text class="text" x="940" y="305" text-anchor="middle" fill="#f2f6fa" font-family="&apos;Noto Sans TC&apos;, &apos;Noto Sans&apos;, Arial, sans-serif" font-size="13">Shipment</text>
<text class="text pk" x="783" y="150" text-anchor="middle" fill="#f2f6fa" font-family="&apos;Noto Sans TC&apos;, &apos;Noto Sans&apos;, Arial, sans-serif" font-size="13">出貨紀錄編號</text>
<text class="text" x="1085" y="150" text-anchor="middle" fill="#f2f6fa" font-family="&apos;Noto Sans TC&apos;, &apos;Noto Sans&apos;, Arial, sans-serif" font-size="13">員工編號</text>
<text class="text" x="795" y="192" text-anchor="middle" fill="#f2f6fa" font-family="&apos;Noto Sans TC&apos;, &apos;Noto Sans&apos;, Arial, sans-serif" font-size="13">訂單編號</text>
<text class="text" x="1085" y="192" text-anchor="middle" fill="#f2f6fa" font-family="&apos;Noto Sans TC&apos;, &apos;Noto Sans&apos;, Arial, sans-serif" font-size="13">出貨日期</text>
<text class="text" x="783" y="234" text-anchor="middle" fill="#f2f6fa" font-family="&apos;Noto Sans TC&apos;, &apos;Noto Sans&apos;, Arial, sans-serif" font-size="13">追蹤編號</text>
<text class="text" x="1085" y="234" text-anchor="middle" fill="#f2f6fa" font-family="&apos;Noto Sans TC&apos;, &apos;Noto Sans&apos;, Arial, sans-serif" font-size="13">運輸方式</text>
<text class="text" x="795" y="276" text-anchor="middle" fill="#f2f6fa" font-family="&apos;Noto Sans TC&apos;, &apos;Noto Sans&apos;, Arial, sans-serif" font-size="13">狀態</text>
<text class="text" x="160" y="935" text-anchor="middle" fill="#f2f6fa" font-family="&apos;Noto Sans TC&apos;, &apos;Noto Sans&apos;, Arial, sans-serif" font-size="13">orderandinvoice</text>
<text class="text pk" x="3" y="780" text-anchor="middle" fill="#f2f6fa" font-family="&apos;Noto Sans TC&apos;, &apos;Noto Sans&apos;, Arial, sans-serif" font-size="13">主鍵</text>
<text class="text" x="305" y="780" text-anchor="middle" fill="#f2f6fa" font-family="&apos;Noto Sans TC&apos;, &apos;Noto Sans&apos;, Arial, sans-serif" font-size="13">訂單編號（外鍵）</text>
<text class="text" x="15" y="822" text-anchor="middle" fill="#f2f6fa" font-family="&apos;Noto Sans TC&apos;, &apos;Noto Sans&apos;, Arial, sans-serif" font-size="13">訂單編號快照</text>
<text class="text" x="305" y="822" text-anchor="middle" fill="#f2f6fa" font-family="&apos;Noto Sans TC&apos;, &apos;Noto Sans&apos;, Arial, sans-serif" font-size="13">發票號碼</text>
<text class="text" x="3" y="864" text-anchor="middle" fill="#f2f6fa" font-family="&apos;Noto Sans TC&apos;, &apos;Noto Sans&apos;, Arial, sans-serif" font-size="13">顧客編號（外鍵）</text>
<text class="text" x="305" y="864" text-anchor="middle" fill="#f2f6fa" font-family="&apos;Noto Sans TC&apos;, &apos;Noto Sans&apos;, Arial, sans-serif" font-size="13">顧客名稱快照</text>
<text class="text" x="15" y="906" text-anchor="middle" fill="#f2f6fa" font-family="&apos;Noto Sans TC&apos;, &apos;Noto Sans&apos;, Arial, sans-serif" font-size="13">金額</text>
<text class="text" x="305" y="906" text-anchor="middle" fill="#f2f6fa" font-family="&apos;Noto Sans TC&apos;, &apos;Noto Sans&apos;, Arial, sans-serif" font-size="13">狀態</text>
<text class="text" x="3" y="948" text-anchor="middle" fill="#f2f6fa" font-family="&apos;Noto Sans TC&apos;, &apos;Noto Sans&apos;, Arial, sans-serif" font-size="13">建立時間</text>
<text class="text" x="940" y="1185" text-anchor="middle" fill="#f2f6fa" font-family="&apos;Noto Sans TC&apos;, &apos;Noto Sans&apos;, Arial, sans-serif" font-size="13">Employee</text>
<text class="text pk" x="783" y="1030" text-anchor="middle" fill="#f2f6fa" font-family="&apos;Noto Sans TC&apos;, &apos;Noto Sans&apos;, Arial, sans-serif" font-size="13">員工編號</text>
<text class="text" x="355" y="305" text-anchor="middle" fill="#f2f6fa" font-family="&apos;Noto Sans TC&apos;, &apos;Noto Sans&apos;, Arial, sans-serif" font-size="13">下訂</text>
<text class="text" x="745" y="745" text-anchor="middle" fill="#f2f6fa" font-family="&apos;Noto Sans TC&apos;, &apos;Noto Sans&apos;, Arial, sans-serif" font-size="13">承辦</text>
<text class="text" x="550" y="620" text-anchor="middle" fill="#f2f6fa" font-family="&apos;Noto Sans TC&apos;, &apos;Noto Sans&apos;, Arial, sans-serif" font-size="13">包含</text>
<text class="text" x="745" y="935" text-anchor="middle" fill="#f2f6fa" font-family="&apos;Noto Sans TC&apos;, &apos;Noto Sans&apos;, Arial, sans-serif" font-size="13">品項</text>
<text class="text" x="940" y="745" text-anchor="middle" fill="#f2f6fa" font-family="&apos;Noto Sans TC&apos;, &apos;Noto Sans&apos;, Arial, sans-serif" font-size="13">由員工出貨</text>
<text class="text" x="745" y="305" text-anchor="middle" fill="#f2f6fa" font-family="&apos;Noto Sans TC&apos;, &apos;Noto Sans&apos;, Arial, sans-serif" font-size="13">出貨對應</text>
<text class="text" x="355" y="620" text-anchor="middle" fill="#f2f6fa" font-family="&apos;Noto Sans TC&apos;, &apos;Noto Sans&apos;, Arial, sans-serif" font-size="13">開立發票</text>
<text class="text" x="160" y="620" text-anchor="middle" fill="#f2f6fa" font-family="&apos;Noto Sans TC&apos;, &apos;Noto Sans&apos;, Arial, sans-serif" font-size="13">開立給</text>
</svg>
